<svg width="23" height="26" viewBox="0 0 23 26" fill="none" xmlns="http://www.w3.org/2000/svg">
<g id="Frame">
<g id="SVGRepo_iconCarrier">
<path id="Vector" d="M8.86705 18.7073H5.46774C4.20793 18.7073 3.57803 18.7073 3.4455 18.6038C3.29661 18.4874 3.26023 18.4187 3.2441 18.2236C3.22975 18.0498 3.61582 17.3809 4.38796 16.0432C5.18518 14.6619 5.86212 12.6508 5.86212 9.80346C5.86212 8.22917 6.49496 6.71935 7.6214 5.60614C8.74785 4.49294 10.2756 3.86755 11.8687 3.86755C13.4617 3.86755 14.9895 4.49294 16.1159 5.60614C17.2425 6.71935 17.8753 8.22917 17.8753 9.80346C17.8753 12.6508 18.5522 14.6619 19.3495 16.0432C20.1215 17.3809 20.5076 18.0498 20.4933 18.2236C20.4772 18.4187 20.4408 18.4874 20.2919 18.6038C20.1594 18.7073 19.5295 18.7073 18.2697 18.7073H14.872M8.86705 18.7073L8.86541 19.7673C8.86541 21.5236 10.2101 22.9473 11.8687 22.9473C13.5274 22.9473 14.872 21.5236 14.872 19.7673V18.7073M8.86705 18.7073H14.872" stroke="black" stroke-width="1.5" stroke-linecap="round" stroke-linejoin="round"/>
</g>
</g>
</svg>
