<svg width="24" height="23" viewBox="0 0 24 23" fill="none" xmlns="http://www.w3.org/2000/svg">
<g id="Frame">
<g id="SVGRepo_iconCarrier">
<path id="Vector" d="M17.7888 5.84729C19.0348 5.96984 19.8734 6.24682 20.4994 6.87278C21.6222 7.99555 21.6222 9.80256 21.6222 13.4167C21.6222 17.0308 21.6222 18.8378 20.4994 19.9606C19.3767 21.0834 17.5696 21.0834 13.9555 21.0834H10.1222C6.50807 21.0834 4.70102 21.0834 3.57826 19.9606C2.45551 18.8378 2.45551 17.0308 2.45551 13.4167C2.45551 9.80256 2.45551 7.99555 3.57826 6.87278C4.20422 6.24682 5.0429 5.96984 6.28884 5.84729" stroke="white" stroke-width="1.5"/>
<path id="Vector_2" d="M10.1222 5.75H13.9555" stroke="white" stroke-width="1.5" stroke-linecap="round"/>
<path id="Vector_3" d="M11.0805 8.625H12.9972" stroke="white" stroke-width="1.5" stroke-linecap="round"/>
<path id="Vector_4" d="M8.35776 11.3074L7.66811 10.7327C6.98986 10.1675 6.65072 9.88488 6.46977 9.49854C6.28882 9.1122 6.28882 8.67075 6.28882 7.78786V6.70829C6.28882 4.44948 6.28882 3.32008 6.99054 2.61835C7.69227 1.91663 8.82167 1.91663 11.0805 1.91663H12.9972C15.2559 1.91663 16.3853 1.91663 17.0871 2.61835C17.7888 3.32008 17.7888 4.44948 17.7888 6.70829V7.78786C17.7888 8.67075 17.7888 9.1122 17.6079 9.49854C17.427 9.88488 17.0878 10.1675 16.4095 10.7327L15.7199 11.3074C13.9598 12.7742 13.0797 13.5076 12.0388 13.5076C10.998 13.5076 10.1179 12.7742 8.35776 11.3074Z" stroke="white" stroke-width="1.5" stroke-linecap="round"/>
<path id="Vector_5" d="M6.28882 9.58325L8.35776 11.3074C10.1179 12.7741 10.998 13.5075 12.0388 13.5075C13.0797 13.5075 13.9598 12.7741 15.7199 11.3074L17.7888 9.58325" stroke="white" stroke-width="1.5" stroke-linecap="round"/>
</g>
</g>
</svg>
