<svg width="22" height="21" viewBox="0 0 22 21" fill="none" xmlns="http://www.w3.org/2000/svg">
<g id="SVGRepo_iconCarrier">
<path id="Vector" d="M7.87213 8.38887L11.3112 10.9682C11.753 11.2995 12.3753 11.2343 12.739 10.8189L19.4833 3.11108" stroke="white" stroke-width="1.7" stroke-linecap="round"/>
<path id="Vector_2" d="M20.5388 10.5C20.5388 12.485 19.9171 14.42 18.7609 16.0336C17.6047 17.6471 15.9721 18.8578 14.0926 19.4959C12.2129 20.1339 10.1807 20.1671 8.28112 19.591C6.38163 19.0148 4.71033 17.858 3.50196 16.2833C2.2936 14.7085 1.60886 12.7948 1.54391 10.8109C1.47896 8.82695 2.03707 6.87253 3.13986 5.22209C4.24265 3.57165 5.83471 2.3081 7.69245 1.6089C9.55018 0.909689 11.5803 0.80996 13.4976 1.32371" stroke="white" stroke-width="1.7" stroke-linecap="round"/>
</g>
</svg>
